<svg width="21" height="20" viewBox="0 0 21 20" fill="none" xmlns="http://www.w3.org/2000/svg">
<path fill-rule="evenodd" clip-rule="evenodd" d="M10.3334 0C7.61737 0 7.27737 0.0119999 6.21037 0.0599999C5.14637 0.109 4.41937 0.278 3.78337 0.525C3.11586 0.775845 2.51113 1.16933 2.01137 1.678C1.50273 2.17777 1.10925 2.7825 0.858374 3.45C0.611374 4.086 0.442374 4.813 0.393374 5.877C0.344374 6.944 0.333374 7.284 0.333374 10C0.333374 12.716 0.344374 13.056 0.393374 14.123C0.442374 15.187 0.611374 15.914 0.858374 16.55C1.10928 17.2175 1.50276 17.8222 2.01137 18.322C2.51117 18.8306 3.11589 19.2241 3.78337 19.475C4.41937 19.722 5.14637 19.891 6.21037 19.94C7.27737 19.988 7.61737 20 10.3334 20C13.0494 20 13.3894 19.988 14.4564 19.94C15.5204 19.891 16.2474 19.722 16.8834 19.475C17.5509 19.2241 18.1556 18.8306 18.6554 18.322C19.164 17.8222 19.5575 17.2175 19.8084 16.55C20.0554 15.914 20.2244 15.187 20.2734 14.123C20.3214 13.056 20.3334 12.716 20.3334 10C20.3334 7.284 20.3214 6.944 20.2734 5.877C20.2244 4.813 20.0554 4.086 19.8084 3.45C19.5575 2.7825 19.164 2.17777 18.6554 1.678C18.1556 1.16933 17.5509 0.775845 16.8834 0.525C16.2474 0.278 15.5204 0.109 14.4564 0.0599999C13.3894 0.0119999 13.0494 0 10.3334 0ZM10.3334 1.802C13.0034 1.802 13.3194 1.812 14.3734 1.86C15.3494 1.905 15.8784 2.067 16.2314 2.204C16.6974 2.386 17.0314 2.603 17.3814 2.952C17.7314 3.302 17.9474 3.636 18.1294 4.102C18.2654 4.455 18.4294 4.984 18.4734 5.959C18.5214 7.014 18.5314 7.329 18.5314 10C18.5314 12.67 18.5214 12.986 18.4734 14.04C18.4284 15.016 18.2654 15.545 18.1294 15.898C17.9691 16.3324 17.7135 16.7253 17.3814 17.048C17.0314 17.398 16.6974 17.614 16.2314 17.796C15.8784 17.932 15.3494 18.096 14.3744 18.14C13.3204 18.188 13.0044 18.198 10.3334 18.198C7.66337 18.198 7.34637 18.188 6.29337 18.14C5.31737 18.095 4.78837 17.932 4.43537 17.796C4.00096 17.6357 3.60799 17.3801 3.28537 17.048C2.95323 16.7254 2.69763 16.3324 2.53737 15.898C2.40037 15.545 2.23737 15.016 2.19337 14.041C2.14537 12.986 2.13537 12.671 2.13537 10C2.13537 7.33 2.14537 7.014 2.19337 5.96C2.23837 4.984 2.40037 4.455 2.53737 4.102C2.71937 3.636 2.93637 3.302 3.28537 2.952C3.63537 2.602 3.96937 2.386 4.43537 2.204C4.78837 2.067 5.31737 1.904 6.29237 1.86C7.34737 1.812 7.66237 1.802 10.3334 1.802ZM10.3334 13.333C9.44941 13.333 8.60165 12.9818 7.97659 12.3568C7.35153 11.7317 7.00037 10.884 7.00037 10C7.00037 9.11603 7.35153 8.26827 7.97659 7.64321C8.60165 7.01815 9.44941 6.667 10.3334 6.667C11.2173 6.667 12.0651 7.01815 12.6902 7.64321C13.3152 8.26827 13.6664 9.11603 13.6664 10C13.6664 10.884 13.3152 11.7317 12.6902 12.3568C12.0651 12.9818 11.2173 13.333 10.3334 13.333ZM10.3334 4.865C9.65904 4.865 8.9913 4.99782 8.36829 5.25588C7.74529 5.51394 7.17921 5.89218 6.70238 6.36901C6.22555 6.84584 5.84731 7.41191 5.58925 8.03492C5.33119 8.65793 5.19837 9.32566 5.19837 10C5.19837 10.6743 5.33119 11.3421 5.58925 11.9651C5.84731 12.5881 6.22555 13.1542 6.70238 13.631C7.17921 14.1078 7.74529 14.4861 8.36829 14.7441C8.9913 15.0022 9.65904 15.135 10.3334 15.135C11.6953 15.135 13.0014 14.594 13.9644 13.631C14.9274 12.668 15.4684 11.3619 15.4684 10C15.4684 8.63811 14.9274 7.33201 13.9644 6.36901C13.0014 5.40601 11.6953 4.865 10.3334 4.865ZM16.8714 4.662C16.8714 4.81959 16.8403 4.97563 16.78 5.12122C16.7197 5.26681 16.6313 5.3991 16.5199 5.51053C16.4085 5.62196 16.2762 5.71035 16.1306 5.77066C15.985 5.83096 15.829 5.862 15.6714 5.862C15.5138 5.862 15.3577 5.83096 15.2122 5.77066C15.0666 5.71035 14.9343 5.62196 14.8228 5.51053C14.7114 5.3991 14.623 5.26681 14.5627 5.12122C14.5024 4.97563 14.4714 4.81959 14.4714 4.662C14.4714 4.34374 14.5978 4.03852 14.8228 3.81347C15.0479 3.58843 15.3531 3.462 15.6714 3.462C15.9896 3.462 16.2949 3.58843 16.5199 3.81347C16.7449 4.03852 16.8714 4.34374 16.8714 4.662Z" fill="url(#paint0_linear)"/>
<defs>
<linearGradient id="paint0_linear" x1="0.333421" y1="19.9999" x2="20.3332" y2="19.9999" gradientUnits="userSpaceOnUse">
<stop stop-color="#0BC1C1"/>
<stop offset="1" stop-color="#BC1AFF"/>
</linearGradient>
</defs>
</svg>
