<svg width="40" height="40" viewBox="0 0 40 40" fill="none" xmlns="http://www.w3.org/2000/svg">
<path d="M20.0001 0C11.2668 0 3.86676 5.6 1.13342 13.3333H38.8668C36.1334 5.6 28.7334 0 20.0001 0Z" fill="#3E4347"/>
<path d="M20.0001 40C28.7334 40 36.1334 34.4667 38.8668 26.6667H1.13342C3.86676 34.4667 11.2668 40 20.0001 40Z" fill="#FFE62E"/>
<path d="M1.13333 13.3333C0.4 15.4 0 17.6666 0 20C0 22.3333 0.4 24.6 1.13333 26.6666H38.8667C39.6 24.6 40 22.3333 40 20C40 17.6666 39.6 15.4 38.8667 13.3333H1.13333Z" fill="#ED4C5C"/>
</svg>
