<svg width="21" height="20" viewBox="0 0 21 20" fill="none" xmlns="http://www.w3.org/2000/svg">
<path fill-rule="evenodd" clip-rule="evenodd" d="M10.3335 0C7.6175 0 7.2775 0.0119999 6.2105 0.0599999C5.1465 0.109 4.4195 0.278 3.7835 0.525C3.11598 0.775845 2.51125 1.16933 2.0115 1.678C1.50285 2.17777 1.10937 2.7825 0.858496 3.45C0.611496 4.086 0.442496 4.813 0.393496 5.877C0.344496 6.944 0.333496 7.284 0.333496 10C0.333496 12.716 0.344496 13.056 0.393496 14.123C0.442496 15.187 0.611496 15.914 0.858496 16.55C1.1094 17.2175 1.50288 17.8222 2.0115 18.322C2.51129 18.8306 3.11601 19.2241 3.7835 19.475C4.4195 19.722 5.1465 19.891 6.2105 19.94C7.2775 19.988 7.6175 20 10.3335 20C13.0495 20 13.3895 19.988 14.4565 19.94C15.5205 19.891 16.2475 19.722 16.8835 19.475C17.551 19.2241 18.1557 18.8306 18.6555 18.322C19.1641 17.8222 19.5576 17.2175 19.8085 16.55C20.0555 15.914 20.2245 15.187 20.2735 14.123C20.3215 13.056 20.3335 12.716 20.3335 10C20.3335 7.284 20.3215 6.944 20.2735 5.877C20.2245 4.813 20.0555 4.086 19.8085 3.45C19.5576 2.7825 19.1641 2.17777 18.6555 1.678C18.1557 1.16933 17.551 0.775845 16.8835 0.525C16.2475 0.278 15.5205 0.109 14.4565 0.0599999C13.3895 0.0119999 13.0495 0 10.3335 0ZM10.3335 1.802C13.0035 1.802 13.3195 1.812 14.3735 1.86C15.3495 1.905 15.8785 2.067 16.2315 2.204C16.6975 2.386 17.0315 2.603 17.3815 2.952C17.7315 3.302 17.9475 3.636 18.1295 4.102C18.2655 4.455 18.4295 4.984 18.4735 5.959C18.5215 7.014 18.5315 7.329 18.5315 10C18.5315 12.67 18.5215 12.986 18.4735 14.04C18.4285 15.016 18.2655 15.545 18.1295 15.898C17.9692 16.3324 17.7136 16.7253 17.3815 17.048C17.0315 17.398 16.6975 17.614 16.2315 17.796C15.8785 17.932 15.3495 18.096 14.3745 18.14C13.3205 18.188 13.0045 18.198 10.3335 18.198C7.6635 18.198 7.3465 18.188 6.2935 18.14C5.3175 18.095 4.7885 17.932 4.4355 17.796C4.00108 17.6357 3.60811 17.3801 3.2855 17.048C2.95336 16.7254 2.69776 16.3324 2.5375 15.898C2.4005 15.545 2.2375 15.016 2.1935 14.041C2.1455 12.986 2.1355 12.671 2.1355 10C2.1355 7.33 2.1455 7.014 2.1935 5.96C2.2385 4.984 2.4005 4.455 2.5375 4.102C2.7195 3.636 2.9365 3.302 3.2855 2.952C3.6355 2.602 3.9695 2.386 4.4355 2.204C4.7885 2.067 5.3175 1.904 6.2925 1.86C7.3475 1.812 7.6625 1.802 10.3335 1.802ZM10.3335 13.333C9.44953 13.333 8.60177 12.9818 7.97671 12.3568C7.35165 11.7317 7.0005 10.884 7.0005 10C7.0005 9.11603 7.35165 8.26827 7.97671 7.64321C8.60177 7.01815 9.44953 6.667 10.3335 6.667C11.2175 6.667 12.0652 7.01815 12.6903 7.64321C13.3153 8.26827 13.6665 9.11603 13.6665 10C13.6665 10.884 13.3153 11.7317 12.6903 12.3568C12.0652 12.9818 11.2175 13.333 10.3335 13.333ZM10.3335 4.865C9.65916 4.865 8.99142 4.99782 8.36842 5.25588C7.74541 5.51394 7.17933 5.89218 6.7025 6.36901C6.22567 6.84584 5.84743 7.41191 5.58937 8.03492C5.33132 8.65793 5.1985 9.32566 5.1985 10C5.1985 10.6743 5.33132 11.3421 5.58937 11.9651C5.84743 12.5881 6.22567 13.1542 6.7025 13.631C7.17933 14.1078 7.74541 14.4861 8.36842 14.7441C8.99142 15.0022 9.65916 15.135 10.3335 15.135C11.6954 15.135 13.0015 14.594 13.9645 13.631C14.9275 12.668 15.4685 11.3619 15.4685 10C15.4685 8.63811 14.9275 7.33201 13.9645 6.36901C13.0015 5.40601 11.6954 4.865 10.3335 4.865ZM16.8715 4.662C16.8715 4.81959 16.8405 4.97563 16.7802 5.12122C16.7198 5.26681 16.6315 5.3991 16.52 5.51053C16.4086 5.62196 16.2763 5.71035 16.1307 5.77066C15.9851 5.83096 15.8291 5.862 15.6715 5.862C15.5139 5.862 15.3579 5.83096 15.2123 5.77066C15.0667 5.71035 14.9344 5.62196 14.823 5.51053C14.7115 5.3991 14.6231 5.26681 14.5628 5.12122C14.5025 4.97563 14.4715 4.81959 14.4715 4.662C14.4715 4.34374 14.5979 4.03852 14.823 3.81347C15.048 3.58843 15.3532 3.462 15.6715 3.462C15.9898 3.462 16.295 3.58843 16.52 3.81347C16.7451 4.03852 16.8715 4.34374 16.8715 4.662Z" fill="url(#paint0_linear)"/>
<defs>
<linearGradient id="paint0_linear" x1="-9.6665" y1="10" x2="10.3335" y2="30" gradientUnits="userSpaceOnUse">
<stop stop-color="#0EBDC2"/>
<stop offset="1" stop-color="#5C75DE"/>
</linearGradient>
</defs>
</svg>
