<svg width="40" height="40" viewBox="0 0 40 40" fill="none" xmlns="http://www.w3.org/2000/svg">
<path d="M0 20C0 23.9333 1.13333 27.6 3.06667 30.6666H36.8667C38.8 27.6 39.9333 23.9333 39.9333 20C39.9333 16.0666 38.8 12.4 36.8667 9.33331H3.06667C1.13333 12.4 0 16.0666 0 20Z" fill="#FFCE31"/>
<path d="M36.9333 9.33333C33.4 3.73333 27.1333 0 20 0C12.8667 0 6.59998 3.73333 3.06665 9.33333H36.9333Z" fill="#ED4C5C"/>
<path d="M3.06665 30.6667C6.59998 36.2667 12.8667 40 20 40C27.1333 40 33.4 36.2667 36.9333 30.6667H3.06665Z" fill="#ED4C5C"/>
<path d="M4.79993 17.8H6.93326V19H4.79993V17.8Z" fill="#C8B100"/>
<path d="M4.79993 26.6H6.99993V27.7333H4.79993V26.6Z" fill="#C8B100"/>
<path d="M4.60006 24.7333C4.40006 24.8667 4.26672 25 4.26672 25.0667C4.26672 25.1333 4.33339 25.2 4.46672 25.2667C4.60006 25.3333 4.73339 25.4667 4.66672 25.6C4.80006 25.4667 4.86672 25.3333 4.86672 25.2C4.86672 25 4.73339 24.8 4.60006 24.7333Z" fill="#ED4C5C"/>
<path d="M5.1333 19H6.66663V26.6H5.1333V19Z" fill="white"/>
<path d="M8.26664 21.8C7.93331 21.6667 7.33331 21.5334 6.66665 21.5334C6.46665 21.5334 6.19998 21.5334 5.93331 21.6C4.99998 21.7334 4.26665 22.1334 4.33331 22.4L3.99998 21.6667C3.93331 21.3334 4.73331 20.9334 5.73331 20.7334C6.06665 20.6667 6.39998 20.6667 6.66665 20.6667C7.33331 20.6667 7.93331 20.7334 8.26664 20.8667V21.8Z" fill="#ED4C5C"/>
<path d="M5.13336 22.8C4.73336 22.8 4.40002 22.6667 4.40002 22.4667C4.40002 22.3333 4.53336 22.1333 4.80002 22H5.20002L5.13336 22.8Z" fill="#ED4C5C"/>
<path d="M6.66663 22.2C6.93329 22.2667 7.13329 22.3333 7.26663 22.4C7.33329 22.4667 7.06663 22.7333 6.66663 22.9333V22.2Z" fill="#ED4C5C"/>
<path d="M4.1333 24.2666C4.06664 24.1333 4.5333 23.8666 5.1333 23.6666C5.39997 23.6 5.59997 23.4666 5.9333 23.3333C6.7333 23 7.39997 22.5333 7.26664 22.4L7.39997 23.2C7.46664 23.3333 6.9333 23.7333 6.1333 24.1333C5.86664 24.2666 5.39997 24.4666 5.1333 24.5333C4.66664 24.6666 4.26664 24.9333 4.26664 25L4.1333 24.2666Z" fill="#ED4C5C"/>
<path d="M19.1333 17.8H21.2666V19H19.1333V17.8Z" fill="#C8B100"/>
<path d="M19.0667 26.6H21.2667V27.7333H19.0667V26.6Z" fill="#C8B100"/>
<path d="M21.4667 24.7333C21.6667 24.8667 21.8001 25 21.8001 25.0667C21.8001 25.1333 21.7334 25.2 21.6001 25.2667C21.4667 25.4 21.3334 25.6 21.4001 25.6667C21.2667 25.5333 21.2001 25.4 21.2001 25.2667C21.2001 25 21.3334 24.8 21.4667 24.7333Z" fill="#ED4C5C"/>
<path d="M19.4 19H20.9334V26.6H19.4V19Z" fill="white"/>
<path d="M17.8 21.8C18.1334 21.6667 18.7334 21.5334 19.4 21.5334C19.6 21.5334 19.8667 21.5334 20.1334 21.6C21.0667 21.7334 21.8 22.1334 21.7334 22.4L22.0667 21.6C22.1334 21.2667 21.3334 20.8667 20.3334 20.6667H19.4C18.7334 20.6667 18.1334 20.7334 17.8 20.8667V21.8Z" fill="#ED4C5C"/>
<path d="M20.9334 22.8001C21.3334 22.8001 21.6667 22.6667 21.6667 22.4667C21.6667 22.3334 21.5334 22.1334 21.2667 22.0001H20.8667L20.9334 22.8001Z" fill="#ED4C5C"/>
<path d="M19.4 22.2C19.1333 22.2667 18.9333 22.3333 18.8 22.4C18.7333 22.4667 19 22.7333 19.4 22.9333V22.2Z" fill="#ED4C5C"/>
<path d="M21.9333 24.2667C22 24.1334 21.5333 23.8667 20.9333 23.6667C20.6666 23.6 20.4666 23.4667 20.1333 23.3334C19.3333 23 18.6666 22.5334 18.8 22.4L18.6666 23.2C18.6 23.3334 19.1333 23.7334 19.9333 24.1334C20.2 24.2667 20.6666 24.4667 20.9333 24.5334C21.4 24.6667 21.8 25 21.7333 25.0667L21.9333 24.2667Z" fill="#ED4C5C"/>
<path d="M13.0001 13.5334C14.2667 13.5334 16.8667 13.8001 17.8001 14.7334C16.8001 17.1334 15.2001 16.1334 13.0001 16.1334C10.8667 16.1334 9.20007 17.1334 8.20007 14.7334C9.13341 13.8001 11.6667 13.5334 13.0001 13.5334Z" fill="#ED4C5C"/>
<path d="M16.2667 16.2C15.4667 15.7334 14.2667 15.6667 13.0001 15.6667C11.7334 15.6667 10.5334 15.8 9.7334 16.2L10.0001 17.3334C10.7334 17.5334 11.8001 17.6667 13.0001 17.6667C14.2001 17.6667 15.2001 17.5334 16.0001 17.3334L16.2667 16.2Z" fill="#C8B100"/>
<path d="M17.4001 13.3333C17.1334 13.1333 16.6001 12.9333 16.1334 12.9333C15.9334 12.9333 15.7334 12.9333 15.5334 13C15.5334 13 15.1334 12.4666 14.2001 12.4666C13.8667 12.4666 13.6001 12.5333 13.3334 12.6666V12.6C13.2667 12.4666 13.1334 12.3333 13.0001 12.3333C12.8667 12.3333 12.6667 12.5333 12.6667 12.6666V12.7333C12.4001 12.6 12.1334 12.5333 11.8001 12.5333C10.8667 12.5333 10.4667 13.1333 10.4667 13.0666C10.2667 13 10.0667 13 9.86674 13C6.80007 13 8.33341 15.0666 8.33341 15.0666L8.66674 14.6666C7.93341 13.7333 8.60007 13.2 9.93341 13.2C10.1334 13.2 10.2667 13.2 10.4001 13.2666C9.93341 13.9333 10.8001 14.5333 10.8001 14.5333L11.0001 14.2C10.5334 13.8666 10.4667 12.7333 11.8001 12.7333C12.1334 12.7333 12.4001 12.8 12.6667 13C12.6667 13.0666 12.6001 14 12.5334 14.1333L13.0667 14.6L13.6001 14.1333C13.5334 13.9333 13.4667 13.0666 13.4667 13C13.6667 12.8666 14.0001 12.7333 14.3334 12.7333C15.7334 12.7333 15.7334 13.8666 15.1334 14.2L15.3334 14.5333C15.3334 14.5333 16.0667 13.9333 15.7334 13.2666C15.8667 13.2666 16.0667 13.2 16.2001 13.2C17.8001 13.2 17.8667 14.4 17.4667 14.6666L17.7334 15.0666C17.6001 15.0666 18.3334 14.1333 17.4001 13.3333Z" fill="#C8B100"/>
<path d="M12.6 12.0667C12.6 11.8667 12.8 11.6667 13 11.6667C13.2666 11.6667 13.4 11.8667 13.4 12.0667C13.4 12.2667 13.2 12.4667 13 12.4667C12.8 12.4667 12.6 12.2667 12.6 12.0667Z" fill="#005BBF"/>
<path d="M12.8666 10.9333V11.1334H12.6666V11.3333H12.8666V12H12.6V12.2H13.4L13.4666 12.0667L13.4 12H13.1333V11.3333H13.3333V11.1334H13.1333V10.9333H12.8666Z" fill="#C8B100"/>
<path d="M13.0001 17.5334C11.9334 17.5334 11.0001 17.4 10.2667 17.2C11.0001 17 11.9334 16.8667 13.0001 16.8667C14.0667 16.8667 15.0001 17 15.7334 17.2C15.0667 17.4 14.0667 17.5334 13.0001 17.5334Z" fill="#ED4C5C"/>
<path d="M13.0667 29.0667C11.8001 29.0667 10.6001 28.7333 9.53339 28.2667C8.73339 27.8667 8.26672 27.1333 8.26672 26.2667V23.0667H17.8667V26.2667C17.8667 27.1333 17.3334 27.9333 16.6001 28.2667C15.5334 28.8 14.3334 29.0667 13.0667 29.0667Z" fill="white"/>
<path d="M13 17.7333H17.8V23.0667H13V17.7333Z" fill="white"/>
<path d="M13.0667 26.2667C13.0667 27.5333 12.0001 28.5333 10.6667 28.5333C9.33339 28.5333 8.26672 27.5333 8.26672 26.2667V23.0667H13.0667V26.2667Z" fill="#ED4C5C"/>
<path d="M9.26672 28.1333C9.40006 28.2 9.60006 28.3333 9.86672 28.4V22.9333H9.33339L9.26672 28.1333Z" fill="#C8B100"/>
<path d="M8.20007 26.2C8.20007 26.8667 8.46674 27.4 8.73341 27.6667V22.9333H8.20007V26.2Z" fill="#C8B100"/>
<path d="M10.3334 28.5333H10.8667V22.9333H10.3334V28.5333Z" fill="#C7B500"/>
<path d="M11.4 28.4C11.6 28.3333 11.8667 28.2 12 28.1333V22.9333H11.4667L11.4 28.4Z" fill="#C8B100"/>
<path d="M8.20007 17.7333H13.0001V23.0667H8.20007V17.7333Z" fill="#ED4C5C"/>
<path d="M12.5333 27.6667C12.8 27.4667 13 27 13.0667 26.4667V23H12.5333V27.6667Z" fill="#C8B100"/>
<path d="M17.8666 23.0667V26.2667C17.8666 27.5334 16.8 28.5334 15.4667 28.5334C14.1333 28.5334 13.0667 27.5334 13.0667 26.2667V23.0667H17.8666Z" fill="#ED4C5C"/>
<path d="M16.1333 18.6667C16.3333 19.0667 16.3333 20.0667 15.7333 19.8667C15.8666 19.9333 15.9333 20.4 16.1333 20.6667C16.4666 21.0667 16.8666 20.7333 16.8 20.2667C16.6666 19.5333 16.7333 19.0667 16.8666 18.3333C16.8666 18.4 17.2 18.4 17.3333 18.2667C17.2666 18.4667 17.2 18.7333 17.3333 18.7333C17.2 18.9333 16.8666 19.2667 16.8 19.4667C16.7333 19.9333 17.4666 20.8 16.6666 21C16.1333 21.1333 16.4666 21.5333 16.6666 21.7333C16.6666 21.7333 16.4 22.6 16.5333 22.5333C16 22.7333 16.1333 22.2667 16.1333 22.2667C16.4 21.4667 15.6666 21.4 15.7333 21.2667C15.0666 21.2 15.8 21.8667 15.2 21.8667C15.0666 21.8667 14.8 22 14.8 22C14.0666 21.9333 14.4666 21.2667 14.7333 21.3333C14.9333 21.4 15.1333 21.7333 15.1333 21.2667C15.1333 21.2667 14.8 20.7333 15.6666 20.7333C15.3333 20.7333 15.1333 20.4667 15 20.1333C14.8666 20.2 14.6666 20.5333 13.9333 20.6C13.9333 20.6 13.7333 19.8667 13.9333 20C14.2 20.1333 14.3333 20.1333 14.6 19.8667C14.4666 19.6667 13.6666 19.4 13.8 18.9333C13.8 18.8 14.2 18.6 14.2 18.6C14.1333 18.9333 14.3333 19.2667 14.7333 19.2667C15.2666 19.3333 15.0666 19.1333 15.1333 19C15.2 18.8667 15.6 19.0667 15.4666 18.7333C15.4666 18.6667 15 18.6 15.1333 18.4C15.4 18.0667 15.8 18.3333 16.1333 18.6667Z" fill="#ED4C5C"/>
<path d="M13.0667 28.4L12.9333 28.0667L13.0667 27.6667L13.2 28.0667L13.0667 28.4Z" fill="#ED4C5C"/>
<path d="M9.66672 18.8666V19.2H9.80006V19.4666H9.46672V20.1333H9.66672V21.6H9.26672V22.3333H12.0001V21.6H11.6667V20.1333H11.8001V19.4666H11.4667V19.2H11.6667V18.8666H11.0001V19.2H11.1334V19.4666H10.8001V18.6666H11.0001V18.3333H10.2667V18.6666H10.4667V19.4666H10.1334V19.2H10.2667V18.8666H9.66672Z" fill="#C8B100"/>
<path d="M17.1999 27.0667V23.7333H13.7333V27.0667L15.3333 27.8H15.5333L17.1999 27.0667ZM15.3333 24V25.1333L14.1999 24H15.3333ZM13.9333 24.0667L15.2666 25.4L13.9333 26.7333V24.0667ZM14.0666 27L15.3333 25.7333V27.6L14.0666 27ZM15.5333 27.5333V25.6667L16.7999 26.9333L15.5333 27.5333ZM16.9333 26.7333L15.5999 25.4L16.9333 24.0667V26.7333ZM15.5333 24H16.6666L15.5333 25.1333V24Z" fill="#C8B100"/>
<path d="M11.4667 23C11.4667 22 12.1333 21.2667 13 21.2667C13.8667 21.2667 14.5333 22.0667 14.5333 23C14.5333 23.9333 13.8667 24.7333 13 24.7333C12.1333 24.7333 11.4667 24 11.4667 23Z" fill="#ED4C5C"/>
<path d="M11.9333 23C11.9333 22.2667 12.4 21.7333 13 21.7333C13.6 21.7333 14.0667 22.3333 14.0667 23C14.0667 23.7333 13.6 24.2667 13 24.2667C12.4667 24.3333 11.9333 23.7333 11.9333 23Z" fill="#005BBF"/>
<path d="M12.5334 22.1333L12.2667 22.8666L12.4667 22.9333L12.3334 23.2H12.7334L12.6001 22.9333L12.8001 22.8666L12.5334 22.1333Z" fill="#C8B100"/>
<path d="M13.5334 22.1333L13.2667 22.8666L13.4667 22.9333L13.3334 23.2H13.7334L13.6667 22.9333L13.8667 22.8666L13.5334 22.1333Z" fill="#C8B100"/>
<path d="M13.0666 22.9999L12.7333 23.7333L12.9333 23.7999L12.8666 24.0666H13.1999L13.1333 23.7999L13.3333 23.7333L13.0666 22.9999Z" fill="#C8B100"/>
</svg>
