<svg width="28" height="20" viewBox="0 0 28 20" fill="none" xmlns="http://www.w3.org/2000/svg">
<path d="M27.3334 9.91382C27.3334 9.84611 27.3334 9.76916 27.3304 9.6799C27.3273 9.43059 27.3213 9.15051 27.3153 8.85195C27.2912 7.99323 27.249 7.13758 27.1827 6.33118C27.0923 5.22007 26.9597 4.29363 26.7789 3.59803C26.5881 2.87211 26.2141 2.21006 25.6943 1.67804C25.1745 1.14603 24.5271 0.762684 23.8167 0.566328C22.964 0.33241 21.2945 0.18775 18.9441 0.0984917C17.8261 0.0554016 16.6298 0.0277006 15.4335 0.0123113C15.0146 0.00615555 14.6259 0.00307787 14.2763 0H13.3904C13.0409 0.00307787 12.6521 0.00615555 12.2333 0.0123113C11.0369 0.0277006 9.84063 0.0554016 8.72266 0.0984917C6.37221 0.190828 4.69978 0.335488 3.85 0.566328C3.13945 0.762202 2.49178 1.14538 1.97189 1.67747C1.452 2.20957 1.07816 2.87187 0.887838 3.59803C0.704021 4.29363 0.574445 5.22007 0.484044 6.33118C0.417749 7.13758 0.375561 7.99323 0.351454 8.85195C0.342414 9.15051 0.339401 9.43059 0.336387 9.6799C0.336387 9.76916 0.333374 9.84611 0.333374 9.91382V10.0862C0.333374 10.1539 0.333374 10.2308 0.336387 10.3201C0.339401 10.5694 0.345428 10.8495 0.351454 11.148C0.375561 12.0068 0.417749 12.8624 0.484044 13.6688C0.574445 14.7799 0.707035 15.7064 0.887838 16.402C1.27355 17.8763 2.40659 19.0397 3.85 19.4337C4.69978 19.6676 6.37221 19.8122 8.72266 19.9015C9.84063 19.9446 11.0369 19.9723 12.2333 19.9877C12.6521 19.9938 13.0409 19.9969 13.3904 20H14.2763C14.6259 19.9969 15.0146 19.9938 15.4335 19.9877C16.6298 19.9723 17.8261 19.9446 18.9441 19.9015C21.2945 19.8092 22.967 19.6645 23.8167 19.4337C25.2602 19.0397 26.3932 17.8793 26.7789 16.402C26.9627 15.7064 27.0923 14.7799 27.1827 13.6688C27.249 12.8624 27.2912 12.0068 27.3153 11.148C27.3243 10.8495 27.3273 10.5694 27.3304 10.3201C27.3304 10.2308 27.3334 10.1539 27.3334 10.0862V9.91382ZM25.1637 10.0739C25.1637 10.1385 25.1637 10.2093 25.1607 10.2924C25.1577 10.5325 25.1517 10.7972 25.1457 11.0834C25.1246 11.9021 25.0824 12.7208 25.0191 13.4811C24.9377 14.4721 24.8232 15.2847 24.6816 15.8295C24.4948 16.5405 23.9463 17.1037 23.2532 17.2915C22.6204 17.4638 21.0263 17.6023 18.8597 17.6854C17.7628 17.7285 16.5816 17.7562 15.4034 17.7716C14.9905 17.7778 14.6078 17.7809 14.2643 17.7809H13.4025L12.2634 17.7716C11.0852 17.7562 9.90692 17.7285 8.80704 17.6854C6.64041 17.5993 5.04331 17.4638 4.41351 17.2915C3.72043 17.1006 3.17199 16.5405 2.98516 15.8295C2.84353 15.2847 2.72902 14.4721 2.64766 13.4811C2.58438 12.7208 2.5452 11.9021 2.5211 11.0834C2.51206 10.7972 2.50904 10.5294 2.50603 10.2924C2.50603 10.2093 2.50302 10.1354 2.50302 10.0739V9.92613C2.50302 9.8615 2.50302 9.7907 2.50603 9.7076C2.50904 9.46753 2.51507 9.20283 2.5211 8.91659C2.54219 8.09787 2.58438 7.27916 2.64766 6.51893C2.72902 5.52785 2.84353 4.7153 2.98516 4.17051C3.17199 3.45953 3.72043 2.89628 4.41351 2.70853C5.04632 2.53616 6.64041 2.39766 8.80704 2.31456C9.90391 2.27147 11.0852 2.24377 12.2634 2.22838C12.6762 2.22222 13.0589 2.21914 13.4025 2.21914H14.2643L15.4034 2.22838C16.5816 2.24377 17.7598 2.27147 18.8597 2.31456C21.0263 2.40074 22.6234 2.53616 23.2532 2.70853C23.9463 2.89935 24.4948 3.45953 24.6816 4.17051C24.8232 4.7153 24.9377 5.52785 25.0191 6.51893C25.0824 7.27916 25.1215 8.09787 25.1457 8.91659C25.1547 9.20283 25.1577 9.47061 25.1607 9.7076C25.1607 9.7907 25.1637 9.86457 25.1637 9.92613V10.0739ZM11.1515 14.1243L18.1425 9.96922L11.1515 5.87565V14.1243Z" fill="url(#paint0_linear)"/>
<defs>
<linearGradient id="paint0_linear" x1="0.333438" y1="19.9999" x2="27.3331" y2="19.9999" gradientUnits="userSpaceOnUse">
<stop stop-color="#0BC1C1"/>
<stop offset="1" stop-color="#BC1AFF"/>
</linearGradient>
</defs>
</svg>
