<svg width="28" height="20" viewBox="0 0 28 20" fill="none" xmlns="http://www.w3.org/2000/svg">
<path d="M27.3335 9.91382C27.3335 9.84611 27.3335 9.76916 27.3305 9.6799C27.3275 9.43059 27.3214 9.15051 27.3154 8.85195C27.2913 7.99323 27.2491 7.13758 27.1828 6.33118C27.0924 5.22007 26.9598 4.29363 26.779 3.59803C26.5882 2.87211 26.2142 2.21006 25.6944 1.67804C25.1746 1.14603 24.5272 0.762684 23.8169 0.566328C22.9641 0.33241 21.2947 0.18775 18.9442 0.0984917C17.8262 0.0554016 16.6299 0.0277006 15.4336 0.0123113C15.0147 0.00615555 14.626 0.00307787 14.2765 0H13.3905C13.041 0.00307787 12.6522 0.00615555 12.2334 0.0123113C11.0371 0.0277006 9.84075 0.0554016 8.72278 0.0984917C6.37234 0.190828 4.6999 0.335488 3.85013 0.566328C3.13957 0.762202 2.4919 1.14538 1.97201 1.67747C1.45212 2.20957 1.07829 2.87187 0.88796 3.59803C0.704143 4.29363 0.574568 5.22007 0.484166 6.33118C0.417871 7.13758 0.375684 7.99323 0.351576 8.85195C0.342536 9.15051 0.339523 9.43059 0.336509 9.6799C0.336509 9.76916 0.333496 9.84611 0.333496 9.91382V10.0862C0.333496 10.1539 0.333496 10.2308 0.336509 10.3201C0.339523 10.5694 0.34555 10.8495 0.351576 11.148C0.375684 12.0068 0.417871 12.8624 0.484166 13.6688C0.574568 14.7799 0.707157 15.7064 0.88796 16.402C1.27367 17.8763 2.40671 19.0397 3.85013 19.4337C4.6999 19.6676 6.37234 19.8122 8.72278 19.9015C9.84075 19.9446 11.0371 19.9723 12.2334 19.9877C12.6522 19.9938 13.041 19.9969 13.3905 20H14.2765C14.626 19.9969 15.0147 19.9938 15.4336 19.9877C16.6299 19.9723 17.8262 19.9446 18.9442 19.9015C21.2947 19.8092 22.9671 19.6645 23.8169 19.4337C25.2603 19.0397 26.3933 17.8793 26.779 16.402C26.9628 15.7064 27.0924 14.7799 27.1828 13.6688C27.2491 12.8624 27.2913 12.0068 27.3154 11.148C27.3245 10.8495 27.3275 10.5694 27.3305 10.3201C27.3305 10.2308 27.3335 10.1539 27.3335 10.0862V9.91382ZM25.1639 10.0739C25.1639 10.1385 25.1639 10.2093 25.1608 10.2924C25.1578 10.5325 25.1518 10.7972 25.1458 11.0834C25.1247 11.9021 25.0825 12.7208 25.0192 13.4811C24.9378 14.4721 24.8233 15.2847 24.6817 15.8295C24.4949 16.5405 23.9464 17.1037 23.2534 17.2915C22.6206 17.4638 21.0265 17.6023 18.8598 17.6854C17.763 17.7285 16.5817 17.7562 15.4035 17.7716C14.9906 17.7778 14.6079 17.7809 14.2644 17.7809H13.4026L12.2635 17.7716C11.0853 17.7562 9.90705 17.7285 8.80716 17.6854C6.64053 17.5993 5.04343 17.4638 4.41363 17.2915C3.72055 17.1006 3.17211 16.5405 2.98528 15.8295C2.84365 15.2847 2.72914 14.4721 2.64778 13.4811C2.5845 12.7208 2.54533 11.9021 2.52122 11.0834C2.51218 10.7972 2.50917 10.5294 2.50615 10.2924C2.50615 10.2093 2.50314 10.1354 2.50314 10.0739V9.92613C2.50314 9.8615 2.50314 9.7907 2.50615 9.7076C2.50917 9.46753 2.51519 9.20283 2.52122 8.91659C2.54231 8.09787 2.5845 7.27916 2.64778 6.51893C2.72914 5.52785 2.84365 4.7153 2.98528 4.17051C3.17211 3.45953 3.72055 2.89628 4.41363 2.70853C5.04644 2.53616 6.64053 2.39766 8.80716 2.31456C9.90403 2.27147 11.0853 2.24377 12.2635 2.22838C12.6764 2.22222 13.0591 2.21914 13.4026 2.21914H14.2644L15.4035 2.22838C16.5817 2.24377 17.7599 2.27147 18.8598 2.31456C21.0265 2.40074 22.6236 2.53616 23.2534 2.70853C23.9464 2.89935 24.4949 3.45953 24.6817 4.17051C24.8233 4.7153 24.9378 5.52785 25.0192 6.51893C25.0825 7.27916 25.1217 8.09787 25.1458 8.91659C25.1548 9.20283 25.1578 9.47061 25.1608 9.7076C25.1608 9.7907 25.1639 9.86457 25.1639 9.92613V10.0739ZM11.1516 14.1243L18.1426 9.96922L11.1516 5.87565V14.1243Z" fill="url(#paint0_linear)"/>
<defs>
<linearGradient id="paint0_linear" x1="-13.1665" y1="10" x2="5.96547" y2="35.8282" gradientUnits="userSpaceOnUse">
<stop stop-color="#0EBDC2"/>
<stop offset="1" stop-color="#5C75DE"/>
</linearGradient>
</defs>
</svg>
