<svg width="30" height="21" viewBox="0 0 30 21" fill="none" xmlns="http://www.w3.org/2000/svg">
<path d="M29.7 4.38803C29.7 4.38803 29.4 2.3848 28.5 1.52627C27.4 0.381568 26.1 0.381568 25.5 0.286176C21.3 1.70574e-07 15 0 15 0C15 0 8.7 1.70574e-07 4.5 0.286176C3.9 0.381568 2.6 0.381568 1.5 1.52627C0.6 2.3848 0.3 4.38803 0.3 4.38803C0.3 4.38803 0 6.67744 0 8.96685V11.0655C0 13.3549 0.3 15.7397 0.3 15.7397C0.3 15.7397 0.6 17.7429 1.5 18.6014C2.6 19.7461 4.1 19.7461 4.8 19.8415C7.2 19.9369 15 20.0323 15 20.0323C15 20.0323 21.3 20.0323 25.5 19.7461C26.1 19.6508 27.4 19.6508 28.5 18.506C29.4 17.6475 29.7 15.6443 29.7 15.6443C29.7 15.6443 30 13.3549 30 11.0655V8.96685C30 6.67744 29.7 4.38803 29.7 4.38803ZM11.9 13.7364V5.72352L20 9.72998L11.9 13.7364Z" fill="white"/>
</svg>
